<svg width="30" height="30" viewBox="0 0 30 30" fill="none" xmlns="http://www.w3.org/2000/svg">
<path d="M25.7812 3.28125H4.21875C3.7002 3.28125 3.28125 3.7002 3.28125 4.21875V25.7812C3.28125 26.2998 3.7002 26.7188 4.21875 26.7188H25.7812C26.2998 26.7188 26.7188 26.2998 26.7188 25.7812V4.21875C26.7188 3.7002 26.2998 3.28125 25.7812 3.28125ZM11.8359 20.0098V22.2656C11.8359 22.3945 11.7305 22.5 11.6016 22.5H10.1953C10.0664 22.5 9.96094 22.3945 9.96094 22.2656V20.0098C8.73926 19.6113 7.85156 18.4629 7.85156 17.1094C7.85156 15.7559 8.73926 14.6045 9.96094 14.209V7.73438C9.96094 7.60547 10.0664 7.5 10.1953 7.5H11.6016C11.7305 7.5 11.8359 7.60547 11.8359 7.73438V14.209C13.0576 14.6074 13.9453 15.7559 13.9453 17.1094C13.9453 18.4629 13.0576 19.6143 11.8359 20.0098ZM20.0273 15.7939C20.0332 15.7939 20.0361 15.791 20.0391 15.791V22.2656C20.0391 22.3945 19.9336 22.5 19.8047 22.5H18.3984C18.2695 22.5 18.1641 22.3945 18.1641 22.2656V15.791C18.1699 15.791 18.1729 15.7939 18.1758 15.7939C16.9453 15.4014 16.0547 14.25 16.0547 12.8906C16.0547 11.5312 16.9453 10.3799 18.1758 9.9873C18.1699 9.9873 18.167 9.99023 18.1641 9.99023V7.73438C18.1641 7.60547 18.2695 7.5 18.3984 7.5H19.8047C19.9336 7.5 20.0391 7.60547 20.0391 7.73438V9.99023C20.0332 9.99023 20.0303 9.9873 20.0273 9.9873C21.2578 10.3799 22.1484 11.5312 22.1484 12.8906C22.1484 14.25 21.2578 15.4014 20.0273 15.7939ZM18.0469 12.8906C18.0469 13.1703 18.158 13.4386 18.3558 13.6364C18.5536 13.8342 18.8218 13.9453 19.1016 13.9453C19.3813 13.9453 19.6495 13.8342 19.8473 13.6364C20.0451 13.4386 20.1562 13.1703 20.1562 12.8906C20.1562 12.6109 20.0451 12.3426 19.8473 12.1448C19.6495 11.9471 19.3813 11.8359 19.1016 11.8359C18.8218 11.8359 18.5536 11.9471 18.3558 12.1448C18.158 12.3426 18.0469 12.6109 18.0469 12.8906ZM11.8184 16.5967L11.7744 16.5264C11.7744 16.5234 11.7715 16.5234 11.7715 16.5205L11.7451 16.4854C11.7422 16.4824 11.7393 16.4795 11.7393 16.4766C11.71 16.4385 11.6807 16.4033 11.6455 16.3711L11.6396 16.3652C11.6279 16.3535 11.6162 16.3418 11.6045 16.333C11.5811 16.3096 11.5547 16.2891 11.5283 16.2715H11.5254L11.4902 16.2451C11.4873 16.2422 11.4814 16.2393 11.4785 16.2363C11.4434 16.2129 11.4053 16.1895 11.3643 16.1719C11.3584 16.1689 11.3496 16.166 11.3438 16.1602C11.332 16.1543 11.3232 16.1514 11.3115 16.1455C11.3027 16.1426 11.291 16.1367 11.2822 16.1338C11.2676 16.1279 11.2529 16.1221 11.2383 16.1191C11.2266 16.1162 11.2119 16.1104 11.2002 16.1074L11.1738 16.0986L11.1328 16.0898C11.127 16.0869 11.1182 16.0869 11.1123 16.084C11.0918 16.0811 11.0713 16.0752 11.0508 16.0723C11.0449 16.0723 11.0391 16.0723 11.0332 16.0693C11.0156 16.0664 11.001 16.0664 10.9834 16.0635C10.9775 16.0635 10.9717 16.0635 10.9629 16.0605C10.9395 16.0605 10.9189 16.0576 10.8955 16.0576C10.8721 16.0576 10.8516 16.0576 10.8281 16.0605C10.8223 16.0605 10.8164 16.0605 10.8076 16.0635C10.79 16.0635 10.7725 16.0664 10.7578 16.0693C10.752 16.0693 10.7461 16.0693 10.7402 16.0723C10.7197 16.0752 10.6992 16.0781 10.6787 16.084C10.6729 16.0869 10.6641 16.0869 10.6582 16.0898L10.6172 16.0986L10.5908 16.1074C10.5791 16.1104 10.5645 16.1162 10.5527 16.1191C10.5381 16.125 10.5234 16.1309 10.5088 16.1338C10.5 16.1367 10.4883 16.1426 10.4795 16.1455C10.4678 16.1514 10.459 16.1543 10.4473 16.1602C10.4414 16.1631 10.4326 16.166 10.4268 16.1719C10.3887 16.1924 10.3506 16.2129 10.3125 16.2363C10.3096 16.2393 10.3037 16.2422 10.3008 16.2451L10.2656 16.2715H10.2627C10.2363 16.292 10.21 16.3125 10.1865 16.333C10.1748 16.3447 10.1631 16.3535 10.1514 16.3652L10.1455 16.3711C10.1127 16.4049 10.0814 16.4401 10.0518 16.4766C10.0488 16.4795 10.0459 16.4824 10.0459 16.4854L10.0195 16.5205C10.0195 16.5234 10.0166 16.5234 10.0166 16.5264L9.97266 16.5967C9.96973 16.6025 9.9668 16.6055 9.96387 16.6113C9.88477 16.7607 9.83789 16.9307 9.83789 17.1094C9.83789 17.2881 9.88477 17.4609 9.96387 17.6074C9.9668 17.6133 9.96973 17.6162 9.97266 17.6221L10.0166 17.6924C10.0166 17.6953 10.0195 17.6953 10.0195 17.6982L10.0459 17.7334C10.0488 17.7363 10.0518 17.7393 10.0518 17.7422C10.0811 17.7803 10.1104 17.8154 10.1455 17.8477L10.1514 17.8535C10.1631 17.8652 10.1748 17.877 10.1865 17.8857C10.21 17.9092 10.2363 17.9297 10.2627 17.9473H10.2656L10.3008 17.9736C10.3037 17.9766 10.3096 17.9795 10.3125 17.9824C10.3477 18.0059 10.3857 18.0293 10.4268 18.0469C10.4326 18.0498 10.4414 18.0527 10.4473 18.0586C10.459 18.0645 10.4678 18.0674 10.4795 18.0732C10.4883 18.0762 10.5 18.082 10.5088 18.085C10.5234 18.0908 10.5381 18.0967 10.5527 18.0996C10.5645 18.1025 10.5791 18.1084 10.5908 18.1113L10.6172 18.1201L10.6582 18.1289C10.6641 18.1318 10.6729 18.1318 10.6787 18.1348C10.6992 18.1377 10.7197 18.1436 10.7402 18.1465C10.7461 18.1465 10.752 18.1465 10.7578 18.1494C10.7754 18.1523 10.79 18.1523 10.8076 18.1553C10.8135 18.1553 10.8193 18.1553 10.8281 18.1582C10.8516 18.1582 10.8721 18.1611 10.8955 18.1611C10.9189 18.1611 10.9395 18.1611 10.9629 18.1582C10.9688 18.1582 10.9746 18.1582 10.9834 18.1553C11.001 18.1553 11.0186 18.1523 11.0332 18.1494C11.0391 18.1494 11.0449 18.1494 11.0508 18.1465C11.0713 18.1436 11.0918 18.1406 11.1123 18.1348C11.1182 18.1318 11.127 18.1318 11.1328 18.1289L11.1738 18.1201L11.2002 18.1113C11.2119 18.1084 11.2266 18.1025 11.2383 18.0996C11.2529 18.0938 11.2676 18.0879 11.2822 18.085C11.291 18.082 11.3027 18.0762 11.3115 18.0732C11.3232 18.0674 11.332 18.0645 11.3438 18.0586C11.3496 18.0557 11.3584 18.0527 11.3643 18.0469C11.4023 18.0264 11.4404 18.0059 11.4785 17.9824C11.4814 17.9795 11.4873 17.9766 11.4902 17.9736L11.5254 17.9473H11.5283C11.5547 17.9268 11.5811 17.9062 11.6045 17.8857C11.6162 17.874 11.6279 17.8652 11.6396 17.8535L11.6455 17.8477C11.6777 17.8154 11.71 17.7773 11.7393 17.7422C11.7422 17.7393 11.7451 17.7363 11.7451 17.7334L11.7715 17.6982C11.7715 17.6953 11.7744 17.6953 11.7744 17.6924L11.8184 17.6221C11.8213 17.6162 11.8242 17.6133 11.8271 17.6074C11.9062 17.458 11.9531 17.2881 11.9531 17.1094C11.9531 16.9307 11.9062 16.7578 11.8271 16.6113C11.8242 16.6055 11.8213 16.5996 11.8184 16.5967Z" fill="#ADADAD"/>
</svg>
