<svg width="30" height="30" viewBox="0 0 30 30" fill="none" xmlns="http://www.w3.org/2000/svg">
<path fill-rule="evenodd" clip-rule="evenodd" d="M17.8125 3.125C17.8125 3.04212 17.7796 2.96263 17.721 2.90403C17.6624 2.84542 17.5829 2.8125 17.5 2.8125H8.75C7.83832 2.8125 6.96398 3.17466 6.31932 3.81932C5.67466 4.46398 5.3125 5.33832 5.3125 6.25V23.75C5.3125 24.6617 5.67466 25.536 6.31932 26.1807C6.96398 26.8253 7.83832 27.1875 8.75 27.1875H21.25C22.1617 27.1875 23.036 26.8253 23.6807 26.1807C24.3253 25.536 24.6875 24.6617 24.6875 23.75V11.4338C24.6875 11.3509 24.6546 11.2714 24.596 11.2128C24.5374 11.1542 24.4579 11.1213 24.375 11.1213H18.75C18.5014 11.1213 18.2629 11.0225 18.0871 10.8467C17.9113 10.6708 17.8125 10.4324 17.8125 10.1838V3.125ZM18.75 15.3125C18.9986 15.3125 19.2371 15.4113 19.4129 15.5871C19.5887 15.7629 19.6875 16.0014 19.6875 16.25C19.6875 16.4986 19.5887 16.7371 19.4129 16.9129C19.2371 17.0887 18.9986 17.1875 18.75 17.1875H11.25C11.0014 17.1875 10.7629 17.0887 10.5871 16.9129C10.4113 16.7371 10.3125 16.4986 10.3125 16.25C10.3125 16.0014 10.4113 15.7629 10.5871 15.5871C10.7629 15.4113 11.0014 15.3125 11.25 15.3125H18.75ZM18.75 20.3125C18.9986 20.3125 19.2371 20.4113 19.4129 20.5871C19.5887 20.7629 19.6875 21.0014 19.6875 21.25C19.6875 21.4986 19.5887 21.7371 19.4129 21.9129C19.2371 22.0887 18.9986 22.1875 18.75 22.1875H11.25C11.0014 22.1875 10.7629 22.0887 10.5871 21.9129C10.4113 21.7371 10.3125 21.4986 10.3125 21.25C10.3125 21.0014 10.4113 20.7629 10.5871 20.5871C10.7629 20.4113 11.0014 20.3125 11.25 20.3125H18.75Z" fill="#ADADAD"/>
<path d="M19.6875 3.53001C19.6875 3.30001 19.9288 3.15376 20.1075 3.29751C20.2588 3.42001 20.395 3.56251 20.5113 3.72501L24.2775 8.97126C24.3625 9.09126 24.27 9.24626 24.1225 9.24626H20C19.9171 9.24626 19.8376 9.21333 19.779 9.15473C19.7204 9.09612 19.6875 9.01664 19.6875 8.93376V3.53001Z" fill="#ADADAD"/>
</svg>
