<svg width="16" height="16" viewBox="0 0 16 16" fill="none" xmlns="http://www.w3.org/2000/svg">
<path d="M5.33366 3.99996C4.98004 3.99996 4.6409 4.14044 4.39085 4.39048C4.1408 4.64053 4.00033 4.97967 4.00033 5.33329V10.6666C4.00033 11.0202 4.1408 11.3594 4.39085 11.6094C4.6409 11.8595 4.98004 12 5.33366 12H10.667C11.0206 12 11.3598 11.8595 11.6098 11.6094C11.8598 11.3594 12.0003 11.0202 12.0003 10.6666V9.33329C12.0003 9.15648 12.0706 8.98691 12.1956 8.86189C12.3206 8.73686 12.4902 8.66663 12.667 8.66663C12.8438 8.66663 13.0134 8.73686 13.1384 8.86189C13.2634 8.98691 13.3337 9.15648 13.3337 9.33329V10.6666C13.3337 11.3739 13.0527 12.0521 12.5526 12.5522C12.0525 13.0523 11.3742 13.3333 10.667 13.3333H5.33366C4.62641 13.3333 3.94814 13.0523 3.44804 12.5522C2.94794 12.0521 2.66699 11.3739 2.66699 10.6666V5.33329C2.66699 4.62605 2.94794 3.94777 3.44804 3.44767C3.94814 2.94758 4.62641 2.66663 5.33366 2.66663H6.66699C6.8438 2.66663 7.01337 2.73686 7.1384 2.86189C7.26342 2.98691 7.33366 3.15648 7.33366 3.33329C7.33366 3.5101 7.26342 3.67967 7.1384 3.8047C7.01337 3.92972 6.8438 3.99996 6.66699 3.99996H5.33366ZM9.33366 3.99996C9.15685 3.99996 8.98728 3.92972 8.86225 3.8047C8.73723 3.67967 8.66699 3.5101 8.66699 3.33329C8.66699 3.15648 8.73723 2.98691 8.86225 2.86189C8.98728 2.73686 9.15685 2.66663 9.33366 2.66663H12.667C12.8438 2.66663 13.0134 2.73686 13.1384 2.86189C13.2634 2.98691 13.3337 3.15648 13.3337 3.33329V6.66663C13.3337 6.84344 13.2634 7.01301 13.1384 7.13803C13.0134 7.26305 12.8438 7.33329 12.667 7.33329C12.4902 7.33329 12.3206 7.26305 12.1956 7.13803C12.0706 7.01301 12.0003 6.84344 12.0003 6.66663V4.94263L9.80566 7.13863C9.74368 7.20061 9.67009 7.24978 9.5891 7.28332C9.50812 7.31687 9.42132 7.33414 9.33366 7.33414C9.246 7.33414 9.1592 7.31687 9.07821 7.28332C8.99723 7.24978 8.92364 7.20061 8.86166 7.13863C8.79967 7.07664 8.75051 7.00306 8.71696 6.92207C8.68342 6.84108 8.66615 6.75428 8.66615 6.66663C8.66615 6.57897 8.68342 6.49217 8.71696 6.41118C8.75051 6.3302 8.79967 6.25661 8.86166 6.19463L11.0577 3.99996H9.33366Z" fill="white"/>
</svg>
