<svg width="132" height="111" viewBox="0 0 132 111" fill="none" xmlns="http://www.w3.org/2000/svg">
<path d="M0 21C0 15.4772 4.47715 11 10 11H122C127.523 11 132 15.4772 132 21V101C132 106.523 127.523 111 122 111H10C4.47715 111 0 106.523 0 101V21Z" fill="#F2F2F2"/>
<path d="M9 8H35V5C35 2.23858 32.7614 0 30 0H14C11.2386 0 9 2.23858 9 5V8Z" fill="#F2F2F2"/>
<path d="M38 8H63V5C63 2.23858 60.7614 0 58 0H43C40.2386 0 38 2.23858 38 5V8Z" fill="#F2F2F2"/>
<path d="M67 8H92V5C92 2.23858 89.7614 0 87 0H72C69.2386 0 67 2.23858 67 5V8Z" fill="#F2F2F2"/>
<path d="M95 8H121V5C121 2.23858 118.761 0 116 0H100C97.2386 0 95 2.23858 95 5V8Z" fill="#F2F2F2"/>
</svg>
