<svg width="32" height="17" viewBox="0 0 32 17" fill="none" xmlns="http://www.w3.org/2000/svg">
<path d="M6.81744 2.19714L6.1499 4.80006H12.1794L12.3967 2.21515L6.81744 2.19714Z" fill="white"/>
<path d="M3.86872 13.6893C3.86032 13.7194 3.87113 13.7422 3.88193 13.7566L11.429 13.7662L11.7747 9.63849H4.90845L3.86872 13.6893Z" fill="white"/>
<path d="M12.5575 9.63721L12.2129 13.7661L19.7887 13.7745L19.4418 9.63721H12.5575Z" fill="white"/>
<path d="M18.8221 2.23554L13.178 2.21753L12.9619 4.80004H19.037L18.8221 2.23554Z" fill="white"/>
<path d="M19.102 5.58167H12.8973L12.6235 8.85573H19.377L19.102 5.58167Z" fill="white"/>
<path d="M5.10791 8.85573H11.8397L12.1135 5.58167H5.94834L5.10791 8.85573Z" fill="white"/>
<path d="M31.9639 15.5383L27.2623 0.539073C27.1614 0.216109 26.8661 0 26.5287 0H5.47004C5.13267 0 4.83732 0.21731 4.73647 0.537873L0.036086 15.5383C-0.0383518 15.7736 0.00366958 16.0221 0.150144 16.2214C0.296618 16.4219 0.522332 16.536 0.769658 16.536H31.2315C31.4788 16.536 31.7045 16.4219 31.851 16.2214C31.9963 16.0221 32.0383 15.7736 31.9639 15.5383ZM28.733 14.2356C28.5698 14.4457 28.3224 14.5658 28.0559 14.5658H3.94407C3.67753 14.5658 3.43021 14.4445 3.26692 14.2356C3.10364 14.0267 3.04721 13.7578 3.11205 13.4996L5.9863 2.06745C6.08235 1.68565 6.42453 1.41792 6.81833 1.41792H25.1828C25.5778 1.41792 25.92 1.68565 26.0149 2.06745L28.8891 13.4996C28.9527 13.7566 28.8963 14.0255 28.733 14.2356Z" fill="white"/>
<path d="M20.2241 9.63721L20.5711 13.7757L28.0557 13.7853L28.1313 13.6893L27.112 9.63721H20.2241Z" fill="white"/>
<path d="M25.2572 2.25592L19.606 2.23792L19.8197 4.80001H25.8971L25.2572 2.25592Z" fill="white"/>
<path d="M26.0929 5.58167H19.8857L20.1595 8.85573H26.9165L26.0929 5.58167Z" fill="white"/>
</svg>
