<svg width="32" height="18" viewBox="0 0 32 18" fill="none" xmlns="http://www.w3.org/2000/svg">
<path d="M15.1328 1.04758V4.10758C15.1328 4.34628 15.2242 4.5752 15.3868 4.74398C15.5495 4.91276 15.7701 5.00758 16.0001 5.00758C16.2301 5.00758 16.4507 4.91276 16.6134 4.74398C16.776 4.5752 16.8674 4.34628 16.8674 4.10758V1.04758C16.8674 0.808888 16.776 0.57997 16.6134 0.411187C16.4507 0.242404 16.2301 0.147583 16.0001 0.147583C15.7701 0.147583 15.5495 0.242404 15.3868 0.411187C15.2242 0.57997 15.1328 0.808888 15.1328 1.04758Z" fill="white"/>
<path d="M31.1327 16.0524H23.6947C23.4818 14.0893 22.5795 12.2764 21.1601 10.96C19.7407 9.6435 17.9037 8.91577 16 8.91577C14.0963 8.91577 12.2593 9.6435 10.8399 10.96C9.4205 12.2764 8.51818 14.0893 8.30529 16.0524H0.867303C0.63728 16.0524 0.416678 16.1472 0.254027 16.316C0.0913763 16.4848 0 16.7137 0 16.9524C0 17.1911 0.0913763 17.42 0.254027 17.5888C0.416678 17.7576 0.63728 17.8524 0.867303 17.8524H31.1327C31.3627 17.8524 31.5833 17.7576 31.746 17.5888C31.9086 17.42 32 17.1911 32 16.9524C32 16.7137 31.9086 16.4848 31.746 16.316C31.5833 16.1472 31.3627 16.0524 31.1327 16.0524Z" fill="white"/>
<path d="M26.2963 5.09762L24.2148 7.25762C24.1342 7.34129 24.0702 7.44064 24.0266 7.54997C23.9829 7.6593 23.9604 7.77648 23.9604 7.89482C23.9604 8.01316 23.9829 8.13034 24.0266 8.23967C24.0702 8.349 24.1342 8.44834 24.2148 8.53202C24.2954 8.61569 24.3912 8.68207 24.4965 8.72736C24.6019 8.77264 24.7148 8.79595 24.8288 8.79595C24.9429 8.79595 25.0558 8.77264 25.1612 8.72736C25.2665 8.68207 25.3623 8.61569 25.4429 8.53202L27.5244 6.37202C27.6873 6.20302 27.7788 5.97381 27.7788 5.73482C27.7788 5.49582 27.6873 5.26661 27.5244 5.09762C27.3616 4.92862 27.1407 4.83368 26.9104 4.83368C26.6801 4.83368 26.4592 4.92862 26.2963 5.09762Z" fill="white"/>
<path d="M4.47844 5.0976C4.39767 5.1812 4.33359 5.28052 4.28986 5.38986C4.24614 5.4992 4.22363 5.61642 4.22363 5.7348C4.22363 5.85318 4.24614 5.9704 4.28986 6.07974C4.33359 6.18908 4.39767 6.2884 4.47844 6.372L6.55996 8.532C6.6406 8.61568 6.73633 8.68206 6.84169 8.72734C6.94705 8.77263 7.05997 8.79594 7.17401 8.79594C7.28805 8.79594 7.40098 8.77263 7.50633 8.72734C7.61169 8.68206 7.70742 8.61568 7.78806 8.532C7.8687 8.44832 7.93267 8.34898 7.97631 8.23965C8.01995 8.13032 8.04241 8.01314 8.04241 7.8948C8.04241 7.77646 8.01995 7.65928 7.97631 7.54995C7.93267 7.44062 7.8687 7.34128 7.78806 7.2576L5.70654 5.0976C5.62597 5.01379 5.53026 4.94729 5.42489 4.90192C5.31953 4.85655 5.20657 4.83319 5.09249 4.83319C4.97841 4.83319 4.86545 4.85655 4.76008 4.90192C4.65471 4.94729 4.559 5.01379 4.47844 5.0976Z" fill="white"/>
</svg>
