<svg width="27" height="27" viewBox="0 0 27 27" fill="none" xmlns="http://www.w3.org/2000/svg">
<path d="M13.5 15.75C12.5625 15.75 11.7656 15.4219 11.1094 14.7656C10.4531 14.1094 10.125 13.3125 10.125 12.375V5.625C10.125 4.6875 10.4531 3.89062 11.1094 3.23438C11.7656 2.57813 12.5625 2.25 13.5 2.25C14.4375 2.25 15.2344 2.57813 15.8906 3.23438C16.5469 3.89062 16.875 4.6875 16.875 5.625V12.375C16.875 13.3125 16.5469 14.1094 15.8906 14.7656C15.2344 15.4219 14.4375 15.75 13.5 15.75ZM12.375 23.625V20.1656C10.425 19.9031 8.8125 19.0312 7.5375 17.55C6.2625 16.0688 5.625 14.3438 5.625 12.375H7.875C7.875 13.9312 8.42363 15.258 9.52088 16.3553C10.6181 17.4525 11.9445 18.0007 13.5 18C15.0562 18 16.383 17.4514 17.4803 16.3541C18.5775 15.2569 19.1257 13.9305 19.125 12.375H21.375C21.375 14.3438 20.7375 16.0688 19.4625 17.55C18.1875 19.0312 16.575 19.9031 14.625 20.1656V23.625H12.375Z" fill="#ADADAD"/>
</svg>
