<svg width="16" height="16" viewBox="0 0 16 16" fill="none" xmlns="http://www.w3.org/2000/svg">
<path d="M7.3335 5.99998H8.66683V4.66665H7.3335M8.00016 13.3333C5.06016 13.3333 2.66683 10.94 2.66683 7.99998C2.66683 5.05998 5.06016 2.66665 8.00016 2.66665C10.9402 2.66665 13.3335 5.05998 13.3335 7.99998C13.3335 10.94 10.9402 13.3333 8.00016 13.3333ZM8.00016 1.33331C7.12468 1.33331 6.25778 1.50575 5.44894 1.84078C4.6401 2.17581 3.90517 2.66688 3.28612 3.28593C2.03587 4.53618 1.3335 6.23187 1.3335 7.99998C1.3335 9.76809 2.03587 11.4638 3.28612 12.714C3.90517 13.3331 4.6401 13.8241 5.44894 14.1592C6.25778 14.4942 7.12468 14.6666 8.00016 14.6666C9.76827 14.6666 11.464 13.9643 12.7142 12.714C13.9644 11.4638 14.6668 9.76809 14.6668 7.99998C14.6668 7.1245 14.4944 6.25759 14.1594 5.44876C13.8243 4.63992 13.3333 3.90499 12.7142 3.28593C12.0951 2.66688 11.3602 2.17581 10.5514 1.84078C9.74255 1.50575 8.87564 1.33331 8.00016 1.33331ZM7.3335 11.3333H8.66683V7.33331H7.3335V11.3333Z" fill="white"/>
</svg>
