<svg width="57" height="57" viewBox="0 0 57 57" fill="none" xmlns="http://www.w3.org/2000/svg">
<path fill-rule="evenodd" clip-rule="evenodd" d="M12 0C5.37258 0 0 5.37258 0 12V45C0 51.6274 5.37258 57 12 57H45C51.6274 57 57 51.6274 57 45V12C57 5.37258 51.6274 0 45 0H12ZM27.5556 26.1111H18.8889V18.8889H27.5556V26.1111ZM16 18.8889V42H30.4444V31.1667H32.2514C32.3728 31.1676 32.4633 31.198 32.523 31.2577C32.5827 31.3174 32.6126 31.4074 32.6126 31.5278V38.2083C32.6126 39.2185 32.9857 40.103 33.732 40.8618C34.4783 41.6206 35.369 42 36.4042 42C37.4616 42.001 38.3576 41.622 39.0923 40.8632C39.8271 40.1044 40.1944 39.2194 40.1944 38.2083V24.6667H40.5556C40.9639 24.6676 41.3067 24.5294 41.584 24.2521C41.8613 23.9748 42 23.6315 42 23.2222V20.3333H41.2778V18.1667H39.8333V20.3333H38.3889V18.1667H36.9444V20.3333H36.2222V23.2222C36.2232 23.6305 36.3619 23.9733 36.6382 24.2507C36.9146 24.528 37.2574 24.6667 37.6667 24.6667H38.0278V38.2083C38.0287 38.6176 37.8665 38.9907 37.541 39.3278C37.2155 39.6648 36.8361 39.8333 36.4028 39.8333C35.9935 39.8333 35.6204 39.6648 35.2833 39.3278C34.9463 38.9907 34.7778 38.6176 34.7778 38.2083V31.5278C34.7787 30.8306 34.5322 30.235 34.0382 29.741C33.5442 29.247 32.9481 29 32.25 29H30.4444V18.8889C30.4454 18.0954 30.1628 17.4156 29.5966 16.8493C29.0303 16.2831 28.35 16 27.5556 16H18.8889C18.0954 16.001 17.4156 16.2841 16.8493 16.8493C16.2831 17.4146 16 18.0944 16 18.8889ZM26.1111 33.3333L22.5 39.1111V34.7778H20.3333L23.9444 29V33.3333H26.1111Z" fill="#2E61E6"/>
</svg>
