<svg width="25" height="29" viewBox="0 0 25 29" fill="none" xmlns="http://www.w3.org/2000/svg">
<path d="M13.9453 0C12.0208 2.9 11.6016 7.00773 11.6599 10.6333C11.667 11.0744 11.8095 11.693 11.9658 12.2459C12.285 12.0989 12.632 12.0229 12.9831 12.0229C13.1659 12.0229 13.3439 12.0438 13.5157 12.0822L13.9453 0ZM12.9831 13.1104C12.2126 13.1104 11.5998 13.7261 11.5998 14.5C11.5998 15.2739 12.2126 15.8896 12.9831 15.8896C13.7535 15.8896 14.3663 15.2739 14.3663 14.5C14.3663 13.7261 13.7535 13.1104 12.9831 13.1104ZM15.4368 14.7437C15.3829 15.2907 15.1496 15.7869 14.7974 16.1721L25 22.588C23.4622 19.4636 20.1307 17.0451 16.976 15.283C16.5931 15.0691 15.9905 14.8839 15.4368 14.7437ZM10.6318 15.2435L0 20.9114C3.46233 21.1358 7.21316 19.4467 10.3096 17.5831C10.6869 17.356 11.1486 16.9223 11.5473 16.5095C11.1203 16.2 10.7942 15.7575 10.6318 15.2435ZM13.9913 16.7582C13.6746 16.9025 13.3308 16.9771 12.9831 16.9771C12.6353 16.9771 12.2916 16.9026 11.9748 16.7584L11.5397 29H14.4264L13.9913 16.7582Z" fill="white"/>
</svg>
